<svg xmlns="http://www.w3.org/2000/svg" xmlns:xlink="http://www.w3.org/1999/xlink" width="194" zoomAndPan="magnify" viewBox="0 0 145.5 231" height="308" preserveAspectRatio="xMidYMid meet" version="1.2"><defs><clipPath id="e1b7aaaf34"><path d="M 37 165 L 107 165 L 107 230.316406 L 37 230.316406 Z M 37 165 "/></clipPath><clipPath id="2352bf58dc"><path d="M 27 83.820312 L 119 83.820312 L 119 146 L 27 146 Z M 27 83.820312 "/></clipPath><clipPath id="c24722dbe6"><path d="M 0 4 L 142 4 L 142 95.320312 L 0 95.320312 Z M 0 4 "/></clipPath><clipPath id="14dc0b897b"><path d="M 132 0.394531 L 144 0.394531 L 144 12 L 132 12 Z M 132 0.394531 "/></clipPath></defs><g id="ea956bdbe6"><path style=" stroke:none;fill-rule:nonzero;fill:#000000;fill-opacity:1;" d="M 2.46875 150.84375 C 2.46875 157.679688 8.011719 163.230469 14.839844 163.230469 C 21.664062 163.230469 27.207031 157.679688 27.207031 150.84375 C 27.207031 144.011719 21.664062 138.460938 14.839844 138.460938 C 8.011719 138.460938 2.46875 144.042969 2.46875 150.84375 Z M 22.304688 150.84375 C 22.304688 154.964844 18.953125 158.347656 14.808594 158.347656 C 10.664062 158.347656 7.3125 154.992188 7.3125 150.84375 C 7.3125 146.695312 10.664062 143.339844 14.808594 143.339844 C 18.953125 143.339844 22.304688 146.726562 22.304688 150.84375 Z M 22.304688 150.84375 "/><path style=" stroke:none;fill-rule:nonzero;fill:#000000;fill-opacity:1;" d="M 14.625 205.445312 L 32.054688 205.445312 C 35.585938 205.445312 38.453125 208.3125 38.453125 211.851562 L 38.453125 226.582031 C 38.453125 227.925781 39.546875 229.023438 40.890625 229.023438 L 53.289062 229.023438 C 54.628906 229.023438 55.726562 227.925781 55.726562 226.582031 L 55.726562 211.851562 C 55.726562 198.796875 45.09375 188.148438 32.054688 188.148438 L 29.675781 188.148438 L 29.675781 177.960938 C 29.675781 169.878906 23.125 163.320312 15.050781 163.320312 L 14.625 163.320312 C 6.550781 163.320312 0 169.878906 0 177.960938 L 0 190.804688 C 0 198.886719 6.550781 205.445312 14.625 205.445312 Z M 4.875 177.960938 C 4.875 172.59375 9.261719 168.203125 14.625 168.203125 L 15.050781 168.203125 C 20.414062 168.203125 24.800781 172.59375 24.800781 177.960938 L 24.800781 190.589844 C 24.800781 191.933594 25.898438 193.03125 27.238281 193.03125 L 32.054688 193.03125 C 42.414062 193.03125 50.851562 201.480469 50.851562 211.851562 L 50.851562 224.144531 L 43.328125 224.144531 L 43.328125 211.851562 C 43.328125 205.628906 38.269531 200.566406 32.054688 200.566406 L 14.625 200.566406 C 9.261719 200.566406 4.875 196.171875 4.875 190.804688 Z M 4.875 177.960938 "/><path style=" stroke:none;fill-rule:nonzero;fill:#000000;fill-opacity:1;" d="M 130.164062 163.230469 C 136.988281 163.230469 142.535156 157.679688 142.535156 150.84375 C 142.535156 144.011719 136.988281 138.460938 130.164062 138.460938 C 123.339844 138.460938 117.792969 144.011719 117.792969 150.84375 C 117.792969 157.679688 123.339844 163.230469 130.164062 163.230469 Z M 130.164062 143.371094 C 134.277344 143.371094 137.660156 146.726562 137.660156 150.875 C 137.660156 155.023438 134.308594 158.378906 130.164062 158.378906 C 126.019531 158.378906 122.667969 155.023438 122.667969 150.875 C 122.667969 146.726562 126.050781 143.371094 130.164062 143.371094 Z M 130.164062 143.371094 "/><path style=" stroke:none;fill-rule:nonzero;fill:#000000;fill-opacity:1;" d="M 130.375 163.320312 L 129.949219 163.320312 C 121.875 163.320312 115.324219 169.878906 115.324219 177.960938 L 115.324219 188.148438 L 112.949219 188.148438 C 99.90625 188.148438 89.273438 198.796875 89.273438 211.851562 L 89.273438 226.582031 C 89.273438 227.925781 90.371094 229.023438 91.710938 229.023438 L 104.113281 229.023438 C 105.453125 229.023438 106.550781 227.925781 106.550781 226.582031 L 106.550781 211.851562 C 106.550781 208.3125 109.414062 205.445312 112.949219 205.445312 L 129.949219 205.445312 C 130.101562 205.445312 130.222656 205.445312 130.375 205.414062 L 130.375 205.445312 C 138.449219 205.445312 145 198.886719 145 190.804688 L 145 177.960938 C 145 169.878906 138.449219 163.320312 130.375 163.320312 Z M 140.125 190.804688 C 140.125 196.171875 135.738281 200.566406 130.375 200.566406 L 130.375 200.59375 C 130.222656 200.566406 130.101562 200.566406 129.949219 200.566406 L 112.949219 200.566406 C 106.734375 200.566406 101.675781 205.628906 101.675781 211.851562 L 101.675781 224.144531 L 94.148438 224.144531 L 94.148438 211.851562 C 94.148438 201.480469 102.589844 193.03125 112.949219 193.03125 L 116.757812 193.03125 C 117.0625 193.183594 117.398438 193.246094 117.761719 193.246094 C 119.101562 193.246094 120.199219 192.144531 120.199219 190.804688 L 120.199219 177.960938 C 120.199219 172.59375 124.585938 168.203125 129.949219 168.203125 L 130.375 168.203125 C 135.738281 168.203125 140.125 172.59375 140.125 177.960938 Z M 140.125 190.804688 "/><g clip-rule="nonzero" clip-path="url(#e1b7aaaf34)"><path style=" stroke:none;fill-rule:nonzero;fill:#000000;fill-opacity:1;" d="M 106.550781 180.648438 L 106.550781 168.230469 C 106.550781 166.890625 105.453125 165.792969 104.113281 165.792969 L 39.640625 165.792969 C 38.300781 165.792969 37.203125 166.890625 37.203125 168.230469 L 37.203125 180.648438 C 37.203125 181.988281 38.300781 183.085938 39.640625 183.085938 L 62.003906 183.085938 L 62.003906 227.835938 C 62.003906 229.175781 63.101562 230.273438 64.441406 230.273438 L 79.3125 230.273438 C 80.652344 230.273438 81.75 229.175781 81.75 227.835938 L 81.75 183.085938 L 104.113281 183.085938 C 105.453125 183.085938 106.550781 181.988281 106.550781 180.648438 Z M 101.675781 178.207031 L 79.3125 178.207031 C 77.96875 178.207031 76.875 179.304688 76.875 180.648438 L 76.875 225.394531 L 66.878906 225.394531 L 66.878906 180.648438 C 66.878906 179.304688 65.78125 178.207031 64.441406 178.207031 L 42.078125 178.207031 L 42.078125 170.671875 L 101.675781 170.671875 Z M 101.675781 178.207031 "/></g><g clip-rule="nonzero" clip-path="url(#2352bf58dc)"><path style=" stroke:none;fill-rule:nonzero;fill:#000000;fill-opacity:1;" d="M 89.242188 83.859375 C 78.976562 83.859375 69.925781 89.105469 64.5625 97.039062 C 60.816406 94.902344 56.609375 93.773438 52.253906 93.773438 C 38.480469 93.773438 27.269531 105 27.269531 118.785156 C 27.269531 124.796875 29.371094 130.46875 33.242188 134.984375 L 29.585938 142.304688 C 29.097656 143.25 29.3125 144.410156 30.074219 145.171875 C 30.53125 145.628906 31.140625 145.84375 31.75 145.84375 C 32.144531 145.84375 32.570312 145.75 32.9375 145.539062 L 40.949219 141.085938 C 44.421875 142.851562 48.324219 143.800781 52.253906 143.800781 C 59.019531 143.800781 65.386719 141.113281 70.046875 136.324219 C 75.226562 140.71875 81.929688 143.371094 89.214844 143.371094 C 93.996094 143.371094 98.6875 142.214844 102.925781 140.015625 L 112.855469 145.539062 C 113.222656 145.75 113.648438 145.84375 114.046875 145.84375 C 114.65625 145.84375 115.265625 145.597656 115.722656 145.171875 C 116.484375 144.441406 116.695312 143.28125 116.207031 142.304688 L 111.636719 133.152344 C 116.359375 127.722656 118.949219 120.859375 118.949219 113.601562 C 118.949219 97.222656 105.636719 83.859375 89.242188 83.859375 Z M 52.253906 138.917969 C 48.6875 138.917969 45.214844 137.972656 42.167969 136.203125 C 41.4375 135.777344 40.523438 135.746094 39.761719 136.171875 L 37.476562 137.453125 L 38.359375 135.683594 C 38.816406 134.738281 38.632812 133.640625 37.933594 132.878906 C 34.214844 129.097656 32.175781 124.09375 32.175781 118.785156 C 32.175781 107.683594 41.195312 98.65625 52.285156 98.65625 C 55.820312 98.65625 59.199219 99.570312 62.21875 101.277344 C 60.511719 105.03125 59.535156 109.207031 59.535156 113.601562 C 59.535156 120.953125 62.21875 127.664062 66.636719 132.847656 C 62.828125 136.722656 57.707031 138.917969 52.253906 138.917969 Z M 106.519531 133.824219 L 108.316406 137.425781 L 104.113281 135.074219 C 103.351562 134.648438 102.4375 134.679688 101.707031 135.105469 C 97.925781 137.300781 93.632812 138.460938 89.242188 138.460938 C 75.53125 138.460938 64.410156 127.296875 64.410156 113.601562 C 64.410156 99.90625 75.53125 88.742188 89.242188 88.742188 C 102.953125 88.742188 114.074219 99.90625 114.074219 113.601562 C 114.074219 120.160156 111.546875 126.351562 106.976562 131.019531 C 106.246094 131.78125 106.0625 132.910156 106.519531 133.824219 Z M 106.519531 133.824219 "/></g><g clip-rule="nonzero" clip-path="url(#c24722dbe6)"><path style=" stroke:none;fill-rule:nonzero;fill:#ffffff;fill-opacity:1;" d="M 1.476562 91.136719 L 42.066406 55.730469 L 43.46875 54.503906 L 44.746094 55.859375 L 54.472656 66.140625 L 51.757812 66.039062 L 73.351562 46.417969 L 73.972656 45.855469 L 74.808594 45.921875 L 86.425781 46.835938 L 84.796875 47.511719 L 96.328125 33.90625 L 96.933594 33.195312 L 97.867188 33.222656 L 109.511719 33.570312 L 108.085938 34.136719 L 136.917969 5.480469 L 138.292969 4.113281 L 141.023438 6.863281 L 139.648438 8.230469 L 110.820312 36.882812 L 110.230469 37.472656 L 109.394531 37.449219 L 97.75 37.097656 L 99.285156 36.414062 L 87.753906 50.019531 L 87.113281 50.777344 L 86.121094 50.699219 L 74.503906 49.785156 L 75.960938 49.289062 L 54.367188 68.90625 L 52.960938 70.1875 L 51.652344 68.804688 L 41.929688 58.523438 L 44.613281 58.652344 L 4.027344 94.058594 L 2.566406 95.332031 L 0.015625 92.414062 Z M 1.476562 91.136719 "/></g><g clip-rule="nonzero" clip-path="url(#14dc0b897b)"><path style=" stroke:none;fill-rule:nonzero;fill:#ffffff;fill-opacity:1;" d="M 143.769531 0.402344 L 132.589844 3.855469 C 135.476562 6.472656 138.363281 9.085938 141.25 11.703125 L 143.769531 0.402344 "/></g></g></svg>